# xmcd CD database file
#
# Track frame offsets:
#	182
#	18860
#	32580
#	48332
#	63835
#	77857
#	93312
#	117400
#	131550
#	145475
#	162680
#	173625
#	185517
#	200940
#	218137
#
# Disc length: 3126 seconds
#
# Revision: 0
# Processed by: cddbd v1.5.2PL0 Copyright (c) Steve Scherf et al.
# Submitted via: CDex 1.51
#
DISCID=d80c340f
DTITLE=Les Plus Grands Moments Country - Volume 3
DYEAR=1995
DGENRE=Country
TTITLE0=Johnny Cash - The Ballad Of Ira Hayes
TTITLE1=Tim Mc Graw - Indian Outlaw
TTITLE2=Willie Nelson - If I Can The Clean Shirt
TTITLE3=Dolly Parton - Country Road
TTITLE4=George Jones - The Grand Tour
TTITLE5=Rosanne Cash - Rose In The Fire
TTITLE6=Charlie Daniels Band - Uneasy Rider
TTITLE7=Tammy Wynette - Your Love
TTITLE8=Collin Raye - That's My Story
TTITLE9=Wynonna Judd - Tell Me Why
TTITLE10=Michael Murphy - Wild Bird
TTITLE11=Mary Chapin Carpenter - Right Now
TTITLE12=Hal Ketchum - (Tonigth We Just Might) Fall In Love Again
TTITLE13=Joe Diffie - Honky Tonk Attitude
TTITLE14=The O'Kanes - Climbing Mountains
EXTD=YEAR: 1995
EXTT0=
EXTT1=
EXTT2=
EXTT3=
EXTT4=
EXTT5=
EXTT6=
EXTT7=
EXTT8=
EXTT9=
EXTT10=
EXTT11=
EXTT12=
EXTT13=
EXTT14=
PLAYORDER=
